<?xml version="1.0" encoding="UTF-8"?> <svg xmlns="http://www.w3.org/2000/svg" height="54.18" viewBox="0 0 299.999 54.18" width="299.999"><g fill="#fff"><path d="m48.261.719v28.589h13.857v-2.759h-11v-25.83z" transform="translate(-.001)"></path><path d="m66.237.719h2.857v28.589h-2.857z"></path><path d="m95.314.719v21.915l-19.027-21.915h-.622v28.589h2.954v-21.647l18.872 21.647h.642v-28.589z" transform="translate(-.001)"></path><path d="m131.716 6.025-2.255 1.73a12.317 12.317 0 0 0 -4.48-3.684 13.1 13.1 0 0 0 -5.743-1.253 12.694 12.694 0 0 0 -6.338 1.642 11.77 11.77 0 0 0 -4.518 4.411 12.207 12.207 0 0 0 -1.6 6.23 11.691 11.691 0 0 0 3.586 8.726 12.429 12.429 0 0 0 9.047 3.5 12.721 12.721 0 0 0 10.048-4.7l2.255 1.709a14.424 14.424 0 0 1 -5.335 4.207 16.742 16.742 0 0 1 -7.143 1.488q-7.5 0-11.836-4.995a15.072 15.072 0 0 1 -3.635-10.184 14.161 14.161 0 0 1 4.4-10.564 15.172 15.172 0 0 1 11.031-4.288 16.183 16.183 0 0 1 7.23 1.583 14.038 14.038 0 0 1 5.287 4.442" transform="translate(-.001)"></path><path d="m151.064 0a14.832 14.832 0 0 1 10.871 4.334 14.424 14.424 0 0 1 4.375 10.666 14.5 14.5 0 0 1 -4.366 10.651 14.472 14.472 0 0 1 -10.644 4.376 14.635 14.635 0 0 1 -10.736-4.353 14.315 14.315 0 0 1 -4.376-10.535 15.243 15.243 0 0 1 1.991-7.639 14.722 14.722 0 0 1 12.885-7.5m.127 2.779a11.769 11.769 0 0 0 -6.016 1.653 11.89 11.89 0 0 0 -4.439 4.454 12.389 12.389 0 0 0 -1.6 6.243 11.665 11.665 0 0 0 3.533 8.607 11.643 11.643 0 0 0 8.518 3.512 12.222 12.222 0 0 0 6.16-1.616 11.539 11.539 0 0 0 4.419-4.414 12.4 12.4 0 0 0 1.587-6.225 12.1 12.1 0 0 0 -1.587-6.156 11.845 11.845 0 0 0 -4.468-4.4 12.082 12.082 0 0 0 -6.111-1.653" transform="translate(-.001)"></path><path d="m172.045.719h2.855v25.829h11v2.76h-13.855z" transform="translate(-.001)"></path><path d="m190.45 29.308v-28.589h.621l19.029 21.914v-21.914h2.819v28.589h-.642l-18.877-21.648v21.648z" transform="translate(-.001)"></path><path d="m2.263 12.014h1.659v4.786h2.631v1.434h-2.631v11.466h-1.659v-11.464h-2.263v-1.436h2.263z" transform="translate(-.001)"></path><path d="m9.042 11.824h1.658v7.288a7.084 7.084 0 0 1 2.216-1.985 5.4 5.4 0 0 1 2.619-.657 4.587 4.587 0 0 1 2.565.73 4.384 4.384 0 0 1 1.653 1.974 10.473 10.473 0 0 1 .533 3.882v6.644h-1.657v-6.155a15.666 15.666 0 0 0 -.178-2.974 3.371 3.371 0 0 0 -1.119-1.927 3.322 3.322 0 0 0 -2.132-.644 4.1 4.1 0 0 0 -2.7.995 4.663 4.663 0 0 0 -1.57 2.465 17.042 17.042 0 0 0 -.237 3.509v4.731h-1.651z" transform="translate(-.001)"></path><path d="m34.7 25.418 1.4.735a7.657 7.657 0 0 1 -1.589 2.18 6.322 6.322 0 0 1 -2.028 1.261 7.071 7.071 0 0 1 -2.551.434 6.165 6.165 0 0 1 -4.932-2.068 6.98 6.98 0 0 1 -1.779-4.675 6.894 6.894 0 0 1 1.506-4.373 6.157 6.157 0 0 1 5.113-2.442 6.362 6.362 0 0 1 5.266 2.5 6.979 6.979 0 0 1 1.423 4.409h-11.6a5.253 5.253 0 0 0 1.435 3.684 4.584 4.584 0 0 0 3.43 1.437 5.538 5.538 0 0 0 1.915-.343 5.069 5.069 0 0 0 1.584-.91 7.686 7.686 0 0 0 1.407-1.829m0-3.473a5.543 5.543 0 0 0 -.967-2.122 4.592 4.592 0 0 0 -1.679-1.278 5.13 5.13 0 0 0 -2.2-.486 4.729 4.729 0 0 0 -3.263 1.22 5.521 5.521 0 0 0 -1.508 2.666z" transform="translate(-.001)"></path><path d="m236.35 19.481-1.317.817a5.5 5.5 0 0 0 -4.65-2.263 5.378 5.378 0 0 0 -3.914 1.515 4.942 4.942 0 0 0 -1.555 3.68 5.236 5.236 0 0 0 .715 2.653 5.014 5.014 0 0 0 1.964 1.928 5.719 5.719 0 0 0 2.8.688 5.661 5.661 0 0 0 4.64-2.263l1.317.864a6.23 6.23 0 0 1 -2.484 2.16 7.922 7.922 0 0 1 -3.549.768 7.012 7.012 0 0 1 -5.072-1.944 6.323 6.323 0 0 1 -2.015-4.729 6.738 6.738 0 0 1 .943-3.477 6.618 6.618 0 0 1 2.589-2.507 7.558 7.558 0 0 1 3.686-.9 7.84 7.84 0 0 1 2.471.392 6.921 6.921 0 0 1 2.021 1.018 5.577 5.577 0 0 1 1.41 1.6" transform="translate(-.001)"></path><path d="m250.393 25.418 1.4.735a7.638 7.638 0 0 1 -1.589 2.179 6.326 6.326 0 0 1 -2.03 1.263 7.074 7.074 0 0 1 -2.549.433 6.165 6.165 0 0 1 -4.935-2.069 6.968 6.968 0 0 1 -1.778-4.675 6.892 6.892 0 0 1 1.506-4.373 6.158 6.158 0 0 1 5.112-2.441 6.361 6.361 0 0 1 5.266 2.5 6.978 6.978 0 0 1 1.423 4.41h-11.6a5.249 5.249 0 0 0 1.435 3.683 4.584 4.584 0 0 0 3.428 1.436 5.53 5.53 0 0 0 1.918-.342 5.075 5.075 0 0 0 1.583-.91 7.78 7.78 0 0 0 1.413-1.829m0-3.472a5.486 5.486 0 0 0 -.968-2.122 4.56 4.56 0 0 0 -1.679-1.28 5.131 5.131 0 0 0 -2.2-.486 4.726 4.726 0 0 0 -3.262 1.221 5.524 5.524 0 0 0 -1.507 2.667z" transform="translate(-.001)"></path><path d="m255.312 16.8h1.659v2.311a6.922 6.922 0 0 1 2.2-1.986 5.419 5.419 0 0 1 2.631-.657 4.563 4.563 0 0 1 2.564.735 4.374 4.374 0 0 1 1.655 1.979 10.481 10.481 0 0 1 .532 3.875v6.643h-1.653v-6.155a15.221 15.221 0 0 0 -.185-2.974 3.279 3.279 0 0 0 -1.107-1.928 3.347 3.347 0 0 0 -2.133-.643 4.089 4.089 0 0 0 -2.7 1 4.663 4.663 0 0 0 -1.57 2.463 17.2 17.2 0 0 0 -.236 3.509v4.728h-1.659z" transform="translate(-.001)"></path><path d="m271.558 12.014h1.66v4.786h2.631v1.434h-2.631v11.466h-1.66v-11.464h-2.258v-1.436h2.262z" transform="translate(-.001)"></path><path d="m289.191 25.418 1.4.735a7.6 7.6 0 0 1 -1.591 2.179 6.313 6.313 0 0 1 -2.027 1.263 7.089 7.089 0 0 1 -2.551.433 6.157 6.157 0 0 1 -4.933-2.069 6.97 6.97 0 0 1 -1.78-4.675 6.9 6.9 0 0 1 1.506-4.373 6.159 6.159 0 0 1 5.112-2.441 6.362 6.362 0 0 1 5.266 2.5 6.973 6.973 0 0 1 1.424 4.41h-11.6a5.255 5.255 0 0 0 1.437 3.683 4.581 4.581 0 0 0 3.426 1.437 5.515 5.515 0 0 0 1.916-.342 5.109 5.109 0 0 0 1.585-.91 7.782 7.782 0 0 0 1.41-1.829m0-3.472a5.47 5.47 0 0 0 -.966-2.122 4.573 4.573 0 0 0 -1.678-1.28 5.134 5.134 0 0 0 -2.2-.486 4.725 4.725 0 0 0 -3.263 1.221 5.524 5.524 0 0 0 -1.507 2.667z" transform="translate(-.001)"></path><path d="m293.482 16.8h1.694v1.884a5.972 5.972 0 0 1 1.6-1.665 3.154 3.154 0 0 1 1.754-.551 3.021 3.021 0 0 1 1.47.439l-.866 1.4a2.284 2.284 0 0 0 -.876-.226 2.4 2.4 0 0 0 -1.6.681 4.313 4.313 0 0 0 -1.172 2.116 20.292 20.292 0 0 0 -.309 4.455v4.367h-1.694z" transform="translate(-.001)"></path></g><path d="m9.21 9.155a4.946 4.946 0 0 1 -2.955 1.005 4.28 4.28 0 0 1 -4.38-4.44 4.289 4.289 0 0 1 4.32-4.42 5.4 5.4 0 0 1 2.805.805v-1.125a5.769 5.769 0 0 0 -2.88-.7 5.286 5.286 0 0 0 -5.31 5.44 5.3 5.3 0 0 0 5.34 5.46 5.145 5.145 0 0 0 3.06-.915zm9.345 1.845h1.02v-10.545h-1.02zm13.335 0h1.02v-9.6h3.345v-.945h-7.71v.945h3.345zm15.71 0h1.02v-4.92l3.76-5.625h-1.2l-3.08 4.665-3.085-4.665h-1.2l3.785 5.625zm28.66-10.725a5.354 5.354 0 0 0 -5.415 5.445 5.408 5.408 0 1 0 10.815 0 5.35 5.35 0 0 0 -5.4-5.445zm0 1.02a4.339 4.339 0 0 1 4.34 4.425 4.344 4.344 0 1 1 -8.685 0 4.342 4.342 0 0 1 4.345-4.42zm14.85 9.69h1.02v-4.74h4.215v-.915h-4.215v-3.93h4.845v-.945h-5.865zm25.65 0h1.02v-4.74h4.22v-.915h-4.22v-3.93h4.845v-.945h-5.865zm19.575-10.71a5.354 5.354 0 0 0 -5.415 5.445 5.408 5.408 0 1 0 10.815 0 5.35 5.35 0 0 0 -5.4-5.445zm0 1.02a4.339 4.339 0 0 1 4.335 4.425 4.344 4.344 0 1 1 -8.685 0 4.342 4.342 0 0 1 4.35-4.42zm14.85 9.7h1.02v-4.36h2.43l3.06 4.365h1.23l-3.18-4.53a2.965 2.965 0 0 0 2.52-2.94 3.087 3.087 0 0 0 -3.345-3.075h-3.735zm1.02-5.295v-4.3h2.7a2.106 2.106 0 0 1 2.28 2.13 2.131 2.131 0 0 1 -2.355 2.175zm17.695 5.3h1.02v-9.6h3.345v-.945h-7.71v.945h3.345zm31.46-1.845a4.946 4.946 0 0 1 -2.955 1.005 4.28 4.28 0 0 1 -4.38-4.44 4.289 4.289 0 0 1 4.32-4.425 5.4 5.4 0 0 1 2.805.81v-1.125a5.769 5.769 0 0 0 -2.88-.7 5.286 5.286 0 0 0 -5.31 5.445 5.3 5.3 0 0 0 5.34 5.46 5.145 5.145 0 0 0 3.06-.915zm13.89-8.88a5.354 5.354 0 0 0 -5.415 5.445 5.408 5.408 0 1 0 10.815 0 5.35 5.35 0 0 0 -5.4-5.445zm0 1.02a4.339 4.339 0 0 1 4.335 4.425 4.344 4.344 0 1 1 -8.685 0 4.342 4.342 0 0 1 4.35-4.42zm14.85 9.705h5.88v-.945h-4.86v-9.6h-1.02zm14.835 0h5.88v-.945h-4.86v-9.6h-1.02zm14.835 0h1.02v-10.545h-1.02zm18.465-10.545v8.67l-6.375-8.67h-.885v10.545h1.035v-8.67l6.375 8.67h.87v-10.545zm14.04-.18c-1.9 0-3.285 1.11-3.285 2.79 0 1.62 1.305 2.265 2.745 2.91 1.515.675 2.46 1.17 2.46 2.265a2.125 2.125 0 0 1 -2.37 1.965 4.6 4.6 0 0 1 -2.955-1.2v1.2a5.052 5.052 0 0 0 2.97.96c1.995 0 3.465-1.17 3.465-2.97 0-1.71-1.38-2.37-2.925-3.06-1.425-.615-2.31-1.11-2.31-2.145 0-1.065.96-1.74 2.2-1.74a4.349 4.349 0 0 1 2.505.825v-1.095a4.713 4.713 0 0 0 -2.5-.705z" fill="#b1b3b5" transform="translate(.999 43)"></path></svg> 